# This file uses centimeters as units for non-parametric coordinates.

mtllib testpersp.mtl
g default
v 1.002025 -0.029466 7.677546
v 3.254834 -0.029466 7.677546
v 1.002025 2.223343 7.677546
v 3.254834 2.223343 7.677546
v 0.785449 3.798490 -7.677546
v 2.553204 3.798490 -7.677546
v 0.785449 2.030735 -7.677546
v 2.553204 2.030735 -7.677546
v -3.266102 -0.799832 7.677546
v 3.258393 -0.799832 7.677546
v -3.266102 -0.055432 7.677546
v 3.258393 -0.055432 7.677546
v -2.563704 2.010359 -7.677546
v 2.555995 2.010359 -7.677546
v -2.563704 1.426236 -7.677546
v 2.555995 1.426236 -7.677546
v -3.266102 2.202718 7.677546
v 3.258393 2.202718 7.677546
v -3.266102 2.947118 7.677546
v 3.258393 2.947118 7.677546
v -2.563704 4.366428 -7.677546
v 2.555995 4.366428 -7.677546
v -2.563704 3.782306 -7.677546
v 2.555995 3.782306 -7.677546
v -3.287575 -0.029466 7.677546
v -1.034766 -0.029466 7.677546
v -1.034766 2.223343 7.677546
v -3.287575 2.223343 7.677546
v -0.972419 0.983856 3.126587
v -2.367130 1.041253 3.132766
v -0.975506 1.959445 3.351896
v -2.355703 2.016246 3.358004
v -0.928807 1.708648 -0.056863
v -1.898576 1.748558 -0.052571
v -0.931893 2.684238 0.168443
v -1.887148 2.723549 0.172674
v -0.824405 3.798489 -7.677546
v -2.592160 3.798490 -7.677546
v -2.592160 2.030735 -7.677546
v -0.824405 2.030735 -7.677546
v 0.896651 1.821023 -0.534531
v 1.482744 1.868156 -0.220305
v 0.624369 1.446416 0.111072
v 1.210462 1.493549 0.425298
v 0.508076 2.396494 0.220305
v 1.094169 2.443627 0.534531
v 0.780358 2.771101 -0.425298
v 1.366451 2.818234 -0.111072
v 0.886334 1.905304 -0.524841
v 0.886536 1.807107 -0.510548
v 0.896651 1.821023 -0.534531
v 0.785449 2.030735 -7.677546
v 2.553204 2.030735 -7.677546
v 3.254834 -0.029466 7.677546
v 1.002025 -0.029466 7.677546
v 0.897368 1.468371 0.257437
v 0.785449 3.798490 -7.677546
v 0.899807 2.427996 0.430326
v 1.094169 2.443627 0.534531
v 1.210462 1.493549 0.425298
v 1.482744 1.868156 -0.220305
v 1.366451 2.818234 -0.111072
v 0.888557 2.779802 -0.367288
v 2.553204 3.798490 -7.677546
v 3.254834 2.223343 7.677546
v 1.002025 2.223343 7.677546
vt 0.375000 0.000000
vt 0.625000 0.000000
vt 0.625000 0.250000
vt 0.375000 0.250000
vt 0.625000 0.500000
vt 0.375000 0.500000
vt 0.625000 0.750000
vt 0.375000 0.750000
vt 0.625000 1.000000
vt 0.375000 1.000000
vt 0.875000 0.000000
vt 0.875000 0.250000
vt 0.125000 0.000000
vt 0.125000 0.250000
vt 0.375000 0.000000
vt 0.625000 0.000000
vt 0.625000 0.250000
vt 0.375000 0.250000
vt 0.625000 0.500000
vt 0.375000 0.500000
vt 0.625000 0.750000
vt 0.375000 0.750000
vt 0.625000 1.000000
vt 0.375000 1.000000
vt 0.875000 0.000000
vt 0.875000 0.250000
vt 0.125000 0.000000
vt 0.125000 0.250000
vt 0.375000 0.000000
vt 0.625000 0.000000
vt 0.625000 0.250000
vt 0.375000 0.250000
vt 0.625000 0.500000
vt 0.375000 0.500000
vt 0.625000 0.750000
vt 0.375000 0.750000
vt 0.625000 1.000000
vt 0.375000 1.000000
vt 0.875000 0.000000
vt 0.875000 0.250000
vt 0.125000 0.000000
vt 0.125000 0.250000
vt 0.375000 0.000000
vt 0.625000 0.000000
vt 0.625000 0.250000
vt 0.375000 0.250000
vt 0.596431 0.000000
vt 0.375000 0.000000
vt 0.375000 0.250000
vt 0.594127 0.250000
vt 0.375000 0.750000
vt 0.528965 0.750000
vt 0.526661 0.500000
vt 0.375000 0.500000
vt 0.125000 0.000000
vt 0.125000 0.250000
vt 0.596431 1.000000
vt 0.375000 1.000000
vt 0.625000 0.500000
vt 0.375000 0.500000
vt 0.125000 0.000000
vt 0.125000 0.250000
vt 0.375000 0.750000
vt 0.625000 0.750000
vt 0.625000 1.000000
vt 0.375000 1.000000
vt 0.875000 0.000000
vt 0.750926 0.086972
vt 0.699095 0.047646
vt 0.695427 0.166165
vt 0.747258 0.211506
vt 0.875000 0.250000
vt 0.375000 0.000000
vt 0.625000 0.000000
vt 0.625000 0.250000
vt 0.375000 0.250000
vt 0.625000 0.500000
vt 0.375000 0.500000
vt 0.625000 0.750000
vt 0.375000 0.750000
vt 0.625000 1.000000
vt 0.375000 1.000000
vt 0.875000 0.000000
vt 0.875000 0.250000
vt 0.125000 0.000000
vt 0.125000 0.250000
vt 0.352823 0.000000
vt 0.375000 0.009287
vt 0.375000 0.000000
vt 0.375000 0.750000
vt 0.625000 0.750000
vt 0.625000 1.000000
vt 0.375000 1.000000
vt 0.125000 0.000000
vt 0.375000 0.000000
vt 0.254191 0.062046
vt 0.241688 0.092302
vt 0.241455 0.104388
vt 0.125000 0.250000
vt 0.491449 0.250000
vt 0.542094 0.500000
vt 0.625000 0.500000
vt 0.625000 0.250000
vt 0.625000 0.000000
vt 0.875000 0.250000
vt 0.875000 0.000000
vt 0.421153 0.750000
vt 0.625000 0.750000
vt 0.375000 0.977823
vt 0.375000 1.000000
vt 0.625000 1.000000
vt 0.625000 0.000000
vt 0.875000 0.000000
vt 0.875000 0.250000
vt 0.625000 0.250000
vt 0.375000 0.250000
vt 0.625000 0.500000
vt 0.375000 0.500000
vt 0.244020 0.216278
vt 0.257006 0.183266
vn 0.000000 0.000000 1.000000
vn 0.000000 0.000000 1.000000
vn 0.000000 0.000000 1.000000
vn 0.000000 0.000000 1.000000
vn 0.000000 0.994780 0.102046
vn 0.000000 0.994780 0.102046
vn 0.000000 0.994780 0.102046
vn 0.000000 0.994780 0.102046
vn 0.000000 0.000000 -1.000000
vn 0.000000 0.000000 -1.000000
vn 0.000000 0.000000 -1.000000
vn 0.000000 0.000000 -1.000000
vn 0.000000 -0.991119 -0.132979
vn 0.000000 -0.991119 -0.132979
vn 0.000000 -0.991119 -0.132979
vn 0.000000 -0.991119 -0.132979
vn 0.998958 0.000000 -0.045646
vn 0.998958 0.000000 -0.045646
vn 0.998958 0.000000 -0.045646
vn 0.998958 0.000000 -0.045646
vn -0.999901 0.000000 0.014103
vn -0.999901 0.000000 0.014103
vn -0.999901 0.000000 0.014103
vn -0.999901 0.000000 0.014103
vn 0.000000 0.000000 1.000000
vn 0.000000 0.000000 1.000000
vn 0.000000 0.000000 1.000000
vn 0.000000 0.000000 1.000000
vn 0.000000 0.991071 0.133333
vn 0.000000 0.991071 0.133333
vn 0.000000 0.991071 0.133333
vn 0.000000 0.991071 0.133333
vn 0.000000 0.000000 -1.000000
vn 0.000000 0.000000 -1.000000
vn 0.000000 0.000000 -1.000000
vn 0.000000 0.000000 -1.000000
vn 0.000000 -0.989654 -0.143473
vn 0.000000 -0.989654 -0.143473
vn 0.000000 -0.989654 -0.143473
vn 0.000000 -0.989654 -0.143473
vn 0.998955 0.000000 -0.045696
vn 0.998955 0.000000 -0.045696
vn 0.998955 0.000000 -0.045696
vn 0.998955 0.000000 -0.045696
vn -0.998955 0.000000 -0.045696
vn -0.998955 0.000000 -0.045696
vn -0.998955 0.000000 -0.045696
vn -0.998955 0.000000 -0.045696
vn 0.000000 0.000000 1.000000
vn 0.000000 0.000000 1.000000
vn 0.000000 0.000000 1.000000
vn 0.000000 0.000000 1.000000
vn 0.000000 0.995755 0.092040
vn 0.000000 0.995755 0.092040
vn 0.000000 0.995755 0.092040
vn 0.000000 0.995755 0.092040
vn 0.000000 0.000000 -1.000000
vn 0.000000 0.000000 -1.000000
vn 0.000000 0.000000 -1.000000
vn 0.000000 0.000000 -1.000000
vn 0.000000 -0.994750 -0.102331
vn 0.000000 -0.994750 -0.102331
vn 0.000000 -0.994750 -0.102331
vn 0.000000 -0.994750 -0.102331
vn 0.998955 0.000000 -0.045696
vn 0.998955 0.000000 -0.045696
vn 0.998955 0.000000 -0.045696
vn 0.998955 0.000000 -0.045696
vn -0.998955 0.000000 -0.045696
vn -0.998955 0.000000 -0.045696
vn -0.998955 0.000000 -0.045696
vn -0.998955 0.000000 -0.045696
vn 0.000000 0.000000 1.000000
vn 0.000000 0.000000 1.000000
vn 0.000000 0.000000 1.000000
vn 0.000000 0.000000 1.000000
vn 0.004947 0.225033 -0.974339
vn 0.004947 0.225033 -0.974339
vn 0.004947 0.225033 -0.974339
vn 0.004947 0.225033 -0.974339
vn -0.004947 -0.225034 0.974338
vn -0.004947 -0.225034 0.974338
vn -0.004947 -0.225034 0.974338
vn -0.004947 -0.225034 0.974338
vn -0.041072 -0.974103 -0.222342
vn -0.041072 -0.974103 -0.222342
vn -0.041072 -0.974103 -0.222342
vn -0.041072 -0.974103 -0.222342
vn 0.989769 -0.043028 0.136038
vn 0.989769 -0.043028 0.136038
vn 0.989769 -0.043028 0.136038
vn 0.989769 -0.043028 0.136038
vn 0.041072 0.974103 0.222342
vn 0.041072 0.974103 0.222342
vn 0.041072 0.974103 0.222342
vn 0.041072 0.974103 0.222342
vn 0.000000 0.994780 0.102046
vn 0.000000 0.994780 0.102046
vn 0.000000 0.994780 0.102046
vn 0.000000 0.994780 0.102046
vn -0.998976 0.000000 -0.045242
vn -0.998976 0.000000 -0.045242
vn -0.998976 0.000000 -0.045242
vn -0.998976 0.000000 -0.045242
vn 0.000000 -0.991119 -0.132979
vn 0.000000 -0.991119 -0.132979
vn 0.000000 -0.991119 -0.132979
vn 0.000000 -0.991119 -0.132979
vn 0.999906 0.000000 0.013698
vn 0.999906 0.000000 0.013698
vn 0.999906 0.000000 0.013698
vn 0.999906 0.000000 0.013698
vn 0.999906 0.000000 0.013698
vn 0.999906 0.000000 0.013698
vn 0.000000 0.000000 -1.000000
vn 0.000000 0.000000 -1.000000
vn 0.000000 0.000000 -1.000000
vn 0.000000 0.000000 -1.000000
vn 0.999906 0.000000 0.013698
vn 0.999906 0.000000 0.013698
vn 0.279999 -0.876891 -0.390721
vn 0.279999 -0.876891 -0.390721
vn 0.279999 -0.876891 -0.390721
vn 0.279999 -0.876891 -0.390721
vn -0.456870 -0.156597 0.875641
vn -0.456870 -0.156597 0.875641
vn -0.456870 -0.156597 0.875641
vn -0.456870 -0.156597 0.875641
vn -0.279999 0.876891 0.390722
vn -0.279999 0.876891 0.390722
vn -0.279999 0.876891 0.390722
vn -0.279999 0.876891 0.390722
vn 0.456870 0.156597 -0.875641
vn 0.456870 0.156597 -0.875641
vn 0.456870 0.156597 -0.875641
vn 0.456869 0.156597 -0.875641
vn 0.906025 0.062780 0.418542
vn 0.906025 0.062780 0.418542
vn 0.906025 0.062780 0.418542
vn 0.906025 0.062780 0.418542
vn -0.906025 -0.062780 -0.418542
vn -0.906025 -0.062780 -0.418542
vn -0.906025 -0.062780 -0.418542
vn -0.906025 -0.062780 -0.418542
vn 0.906024 0.062781 0.418545
vn 0.906024 0.062781 0.418545
vn 0.906024 0.062781 0.418545
vn 0.000000 -0.991119 -0.132979
vn 0.000000 -0.991119 -0.132979
vn 0.000000 -0.991119 -0.132979
vn 0.000000 -0.991119 -0.132979
vn -0.999901 -0.000000 0.014103
vn -0.999901 0.000000 0.014103
vn -0.999901 -0.000000 0.014103
vn -0.999901 -0.000000 0.014103
vn -0.999901 -0.000000 0.014103
vn -0.999901 -0.000000 0.014103
vn 0.456870 0.156597 -0.875641
vn 0.456870 0.156597 -0.875641
vn 0.456870 0.156597 -0.875641
vn 0.456870 0.156597 -0.875641
vn -0.906025 -0.062780 -0.418542
vn -0.906025 -0.062780 -0.418542
vn -0.906025 -0.062780 -0.418542
vn -0.906025 -0.062780 -0.418542
vn 0.279999 -0.876891 -0.390722
vn 0.279999 -0.876891 -0.390722
vn 0.279999 -0.876891 -0.390722
vn 0.279999 -0.876891 -0.390722
vn -0.279999 0.876891 0.390722
vn -0.279999 0.876891 0.390721
vn -0.279999 0.876891 0.390722
vn -0.279999 0.876891 0.390722
vn -0.279999 0.876891 0.390722
vn -0.456870 -0.156597 0.875641
vn -0.456870 -0.156597 0.875641
vn -0.456870 -0.156597 0.875641
vn -0.456870 -0.156597 0.875641
vn -0.456870 -0.156597 0.875641
vn 0.998958 0.000000 -0.045646
vn 0.998958 0.000000 -0.045646
vn 0.998958 0.000000 -0.045646
vn 0.998958 0.000000 -0.045646
vn 0.000000 0.994780 0.102046
vn 0.000000 0.994780 0.102046
vn 0.000000 0.994780 0.102046
vn 0.000000 0.994780 0.102046
vn 0.000000 0.000000 1.000000
vn 0.000000 0.000000 1.000000
vn 0.000000 0.000000 1.000000
vn 0.000000 0.000000 1.000000
vn -0.999901 0.000000 0.014103
vn -0.999901 0.000000 0.014103
vn -0.999901 0.000000 0.014103
vn 0.000000 0.000000 -1.000000
vn 0.000000 0.000000 -1.000000
vn 0.000000 0.000000 -1.000000
vn 0.000000 0.000000 -1.000000
s off
g pCube7
usemtl initialShadingGroup
f 1/1/1 2/2/2 4/3/3 3/4/4
f 3/4/5 4/3/6 6/5/7 5/6/8
f 5/6/9 6/5/10 8/7/11 7/8/12
f 7/8/13 8/7/14 2/9/15 1/10/16
f 2/2/17 8/11/18 6/12/19 4/3/20
f 7/13/21 1/1/22 3/4/23 5/14/24
f 9/15/25 10/16/26 12/17/27 11/18/28
f 11/18/29 12/17/30 14/19/31 13/20/32
f 13/20/33 14/19/34 16/21/35 15/22/36
f 15/22/37 16/21/38 10/23/39 9/24/40
f 10/16/41 16/25/42 14/26/43 12/17/44
f 15/27/45 9/15/46 11/18/47 13/28/48
f 17/29/49 18/30/50 20/31/51 19/32/52
f 19/32/53 20/31/54 22/33/55 21/34/56
f 21/34/57 22/33/58 24/35/59 23/36/60
f 23/36/61 24/35/62 18/37/63 17/38/64
f 18/30/65 24/39/66 22/40/67 20/31/68
f 23/41/69 17/29/70 19/32/71 21/42/72
f 25/43/73 26/44/74 27/45/75 28/46/76
f 29/47/77 30/48/78 32/49/79 31/50/80
f 34/51/81 33/52/82 35/53/83 36/54/84
f 35/53/85 31/50/86 32/49/87 36/54/88
f 34/55/89 36/56/90 32/49/91 30/48/92
f 29/57/93 33/52/94 34/51/95 30/58/96
f 28/46/97 27/45/98 37/59/99 38/60/100
f 39/61/101 25/43/102 28/46/103 38/62/104
f 39/63/105 40/64/106 26/65/107 25/66/108
s 1
f 26/44/109 40/67/110 33/68/111 29/69/112 31/70/113 27/45/114
s off
f 38/60/115 37/59/116 40/64/117 39/63/118
s 1
f 31/70/113 35/71/119 33/68/111 40/67/110 37/72/120 27/45/114
s off
f 41/73/121 42/74/122 44/75/123 43/76/124
f 43/76/125 44/75/126 46/77/127 45/78/128
f 45/78/129 46/77/130 48/79/131 47/80/132
f 47/80/133 48/79/134 42/81/135 41/82/136
f 42/74/137 48/83/138 46/84/139 44/75/140
f 47/85/141 41/73/142 43/76/143 45/86/144
f 49/87/145 50/88/146 51/89/147
f 52/90/148 53/91/149 54/92/150 55/93/151
s 2
f 52/94/152 55/95/153 56/96/154 50/97/155 49/98/156 57/99/157
s off
f 56/100/158 58/101/159 59/102/160 60/103/161
f 61/104/162 60/103/163 59/105/164 62/106/165
f 58/101/166 63/107/167 62/108/168 59/102/169
f 50/88/170 56/100/171 60/103/172 61/104/173 51/89/174
f 63/107/175 49/109/176 51/110/177 61/111/178 62/108/179
f 54/112/180 53/113/181 64/114/182 65/115/183
f 66/116/184 65/115/185 64/117/186 57/118/187
f 55/95/188 54/112/189 65/115/190 66/116/191
s 2
f 49/98/156 63/119/192 58/120/193 56/96/154 55/95/153 66/116/194 57/99/157
s off
f 57/118/195 64/117/196 53/91/197 52/90/198
